<svg version="1.1" id="Layer_1_copy" xmlns="http://www.w3.org/2000/svg" xmlns:xlink="http://www.w3.org/1999/xlink" x="0px"
	 y="0px" viewBox="0 0 512 512" style="enable-background:new 0 0 512 512;" xml:space="preserve">
<title>reset</title>
<path d="M255.8,119.1c22.9-0.2,45.6,4.9,66.2,14.8L338.2,97l51.1,102.4L286.9,214l15.6-35.4c-13.7-7-28.8-10.9-44.2-11.2
	c-15.4-0.4-30.7,3-44.5,9.9c-15.5,7.6-28.7,19.4-37.9,34c-9.4,14.5-14.9,31.1-15.9,48.3c-2.3,34.6,14.2,67.8,43.3,86.7
	c14.4,9.5,31,15.1,48.2,16.3c17.3,1.4,34.5-2.1,50-9.9c13.9-6.9,25.9-17.1,34.8-29.8c9-12.6,15-27,17.6-42.2l49,3.3
	c-3.4,24.1-12.4,46.4-26.9,66.7c-14.5,20.3-33.3,36.3-56.3,47.7c-18.2,9.1-37.1,14.2-56.5,15.2s-37.7-1.6-54.8-7.8
	c-17.1-6.3-32.8-15.9-47.3-28.8c-29.2-26.5-47.4-63-51-102.2c-1.7-19.3,0.1-37.7,5.4-55.1c5.3-17.4,14.2-33.6,26.7-48.5
	c12.5-14.9,27.9-26.9,46.1-36C209.2,124.7,232.3,119.2,255.8,119.1z"/>
</svg>
