<svg version="1.1" id="Layer_1" xmlns="http://www.w3.org/2000/svg" xmlns:xlink="http://www.w3.org/1999/xlink" x="0px" y="0px"
	 viewBox="0 0 512 512" style="enable-background:new 0 0 512 512;" xml:space="preserve">
<path d="M398.5,225.1c0-66.6-56-117.2-127.9-117.2c-58.7,0-109.3,37.3-122.6,88h-5.3C89.3,195.8,44,241.1,44,297
	s45.3,101.2,98.6,101.2h239.8c48,0,85.2-40,85.2-88C470.5,267.6,438.5,233,398.5,225.1z M385.2,360.9H278.6V297l32,32l26.7-26.7
	l-80-80l-79.9,79.9l26.7,26.7l32-32v63.9h-93.3c-32,0-58.7-29.3-58.7-61.3s26.7-63.9,58.7-63.9h34.6l7.9-29.3
	c10.7-34.6,45.3-58.7,85.2-58.7c48,0,88,34.6,88,77.3v34.6l34.6,5.3c21.3,2.6,37.3,23.9,37.3,48
	C430.5,339.6,409.2,360.9,385.2,360.9z"/>
</svg>
