<svg xmlns="http://www.w3.org/2000/svg" viewBox="0 0 1600 1600"><path d="M1049.7,100c-13.2,0-25.8,5.3-35.2,14.6-71.1,71.1-204.8,185.4-464.6,185.4-27.6,0-50,22.4-50,50v250c-88.2-7.5-178.8,18.8-240.6,73.4-52,41.6-96.2,92.7-144.7,141.2-39.6,39.6,31.1,110.4,70.7,70.7,97.4-101.9,182.8-82.9,314.6-85.4v450c-1.8,112.3-120,192.5-212.5,124.8-90.1-58.7-71.3-195.8-153.3-172.3-20.5,6.8-34.3,26-34.2,47.5,0,0,0,100,0,100,0,13.3,5.3,26,14.6,35.4,169.3,153.5,269,120.5,454.1,94.3,19.2-4.6,36.1-13.2,54.3-19.7,263.9-48.7,400.9-327.7,376.9-660h250c13.3,0,26-5.3,35.4-14.6l100-100c31.5-31.5,9.2-85.3-35.4-85.4h-350v-252.9c144.1,166.8,412.8-78.2,485.4-161.7,45.3-47.1-23.6-116-70.7-70.7-31.8,31.8-84.2,67.4-140,76.4-55.9,9-116.9-2.3-188.9-76-9.4-9.7-22.4-15.1-35.9-15ZM798.8,401.4c.4,0,.8,0,1.2,0,0,0,0,598.6,0,598.6-7,204.1-49.5,300-186.1,357.2,133.5-167.8,74.2-737.1,86.1-955.5,35.1.5,70,.7,98.8-.4h0Z"/></svg>