<svg xmlns="http://www.w3.org/2000/svg" viewBox="0 0 24 24"><path d="M20.44,9.94h-8v-2h8v2ZM20.44,14.94h-8v2h8v-2ZM9.72,16.36c0,1.66-1.35,3.01-3.01,3.01s-3.01-1.35-3.01-3.01,1.35-3.01,3.01-3.01,3.01,1.35,3.01,3.01ZM8.75,16.36c0-1.12-.91-2.03-2.03-2.03s-2.03.91-2.03,2.03.91,2.03,2.03,2.03,2.03-.91,2.03-2.03ZM9.72,8.33c0,1.66-1.35,3.01-3.01,3.01s-3.01-1.35-3.01-3.01,1.35-3.01,3.01-3.01,3.01,1.35,3.01,3.01ZM8.98,8.33c0-1.25-1.01-2.27-2.27-2.27s-2.27,1.01-2.27,2.27,1.01,2.27,2.27,2.27,2.27-1.01,2.27-2.27ZM7.66,8.33c0-.52-.42-.95-.95-.95s-.95.42-.95.95.42.95.95.95.95-.42.95-.95Z"/></svg>