<?xml version="1.0" encoding="utf-8"?>
<!-- Generator: Adobe Illustrator 24.0.1, SVG Export Plug-In . SVG Version: 6.00 Build 0)  -->
<svg version="1.1" id="Layer_1_copy" xmlns="http://www.w3.org/2000/svg" xmlns:xlink="http://www.w3.org/1999/xlink" x="0px"
	 y="0px" viewBox="0 0 48 48" style="enable-background:new 0 0 48 48;" xml:space="preserve">
<title>reset</title>
<path d="M24.1,4.6c3.2,0,6.3,0.7,9.1,2l2.2-5.1l7,14.1l-14.1,2l2.1-4.9c-1.9-1-4-1.5-6.1-1.5c-2.1-0.1-4.2,0.4-6.1,1.4
	c-2.1,1-4,2.7-5.2,4.7c-1.3,2-2.1,4.3-2.2,6.6c-0.3,4.8,2,9.3,6,11.9c2,1.3,4.3,2.1,6.6,2.2c2.4,0.2,4.7-0.3,6.9-1.4
	c1.9-0.9,3.6-2.4,4.8-4.1c1.2-1.7,2.1-3.7,2.4-5.8l6.7,0.5c-0.5,3.3-1.7,6.4-3.7,9.2s-4.6,5-7.7,6.6c-2.5,1.3-5.1,2-7.8,2.1
	c-2.7,0.1-5.2-0.2-7.5-1.1c-2.4-0.9-4.5-2.2-6.5-4c-4-3.6-6.5-8.7-7-14.1c-0.2-2.7,0-5.2,0.7-7.6c0.7-2.4,2-4.6,3.7-6.7
	s3.8-3.7,6.3-5C17.7,5.4,20.9,4.7,24.1,4.6z"/>
</svg>
