<?xml version="1.0" encoding="utf-8"?>
<!-- Generator: Adobe Illustrator 24.0.1, SVG Export Plug-In . SVG Version: 6.00 Build 0)  -->
<svg version="1.1" id="Layer_1" xmlns="http://www.w3.org/2000/svg" xmlns:xlink="http://www.w3.org/1999/xlink" x="0px" y="0px"
	 viewBox="0 0 64 62" style="enable-background:new 0 0 64 62;" xml:space="preserve">
<style type="text/css">
	.st0{fill:#FFFFFF;}
	.st1{fill:#707070;}
	.st2{fill:#D3D3D3;}
	.st3{fill:#E29292;}
	.st4{enable-background:new    ;}
	.st5{fill:#838383;}
</style>
<g transform="translate(-823 -519)">
	<path class="st0" d="M828,519h54c2.8,0,5,2.2,5,5v52c0,2.8-2.2,5-5,5h-54c-2.8,0-5-2.2-5-5v-52C823,521.2,825.2,519,828,519z"/>
	<path class="st1" d="M828,520c-2.2,0-4,1.8-4,4v52c0,2.2,1.8,4,4,4h54c2.2,0,4-1.8,4-4v-52c0-2.2-1.8-4-4-4H828 M828,519h54
		c2.8,0,5,2.2,5,5v52c0,2.8-2.2,5-5,5h-54c-2.8,0-5-2.2-5-5v-52C823,521.2,825.2,519,828,519z"/>
	<rect x="845" y="538" class="st2" width="20" height="5"/>
	<rect x="836" y="561.2" class="st2" width="38" height="5"/>
	<rect x="834" y="569.2" class="st2" width="42" height="5"/>
	<circle class="st3" cx="855.5" cy="529.5" r="5.5"/>
	<g transform="translate(3 22)">
		<rect x="851" y="524" class="st2" width="8" height="5"/>
		<g class="st4">
			<path class="st5" d="M847,528.1c0.2,0.2,0.5,0.3,0.8,0.4v-2.1c-0.3-0.1-0.5-0.1-0.7-0.2c-0.2-0.1-0.4-0.2-0.5-0.3
				c-0.1-0.1-0.2-0.3-0.3-0.4c-0.1-0.2-0.1-0.4-0.1-0.6c0-0.2,0-0.5,0.1-0.7c0.1-0.2,0.2-0.4,0.3-0.5c0.1-0.1,0.3-0.3,0.5-0.3
				c0.2-0.1,0.4-0.1,0.6-0.2v-0.5h0.4v0.5c0.4,0.1,0.8,0.2,1,0.5c0.3,0.3,0.4,0.6,0.5,1.1h-0.7c-0.1-0.5-0.4-0.8-0.9-0.9v2l0.5,0.1
				c0.1,0,0.2,0.1,0.4,0.1c0.1,0.1,0.3,0.2,0.4,0.3c0.1,0.1,0.2,0.3,0.3,0.4c0.1,0.2,0.1,0.4,0.1,0.6c0,0.3,0,0.5-0.1,0.7
				c-0.1,0.2-0.2,0.4-0.4,0.5c-0.2,0.1-0.3,0.3-0.6,0.3c-0.2,0.1-0.4,0.1-0.7,0.2v0.7h-0.4v-0.7c-0.5-0.1-1-0.2-1.3-0.6
				c-0.3-0.3-0.5-0.8-0.5-1.3h0.7C846.7,527.6,846.8,527.9,847,528.1z M847.1,524.1c-0.2,0.2-0.3,0.4-0.3,0.7c0,0.1,0,0.3,0.1,0.4
				c0,0.1,0.1,0.2,0.2,0.2c0.1,0.1,0.2,0.1,0.3,0.2c0.1,0,0.2,0.1,0.4,0.1v-1.9C847.5,523.8,847.3,523.9,847.1,524.1z M848.6,528.4
				c0.1,0,0.2-0.1,0.3-0.2c0.1-0.1,0.2-0.2,0.2-0.3s0.1-0.3,0.1-0.4c0-0.2,0-0.3-0.1-0.4c-0.1-0.1-0.1-0.2-0.2-0.3
				c-0.1-0.1-0.2-0.1-0.3-0.2s-0.3-0.1-0.4-0.1v2C848.4,528.5,848.5,528.5,848.6,528.4z"/>
		</g>
	</g>
	<path class="st1" d="M881.5,556.2h-53v-1h53V556.2z"/>
</g>
</svg>
