<?xml version="1.0" encoding="utf-8"?>
<svg version="1.1" xmlns="http://www.w3.org/2000/svg" xmlns:xlink="http://www.w3.org/1999/xlink" x="0px" y="0px"
	 viewBox="0 0 64 43" style="enable-background:new 0 0 64 43;" xml:space="preserve">
<style type="text/css">
	.st0{fill:#FFFFFF;}
	.st1{fill:#707070;}
	.st2{fill:#D3D3D3;}
	.st3{fill:#E29292;}
	.st4{enable-background:new    ;}
	.st5{fill:#838383;}
</style>
<g transform="translate(-717 -503)">
	<path class="st0" d="M722,503h54c2.8,0,5,2.2,5,5v33c0,2.8-2.2,5-5,5h-54c-2.8,0-5-2.2-5-5v-33C717,505.2,719.2,503,722,503z"/>
	<path class="st1" d="M722,504c-2.2,0-4,1.8-4,4v33c0,2.2,1.8,4,4,4h54c2.2,0,4-1.8,4-4v-33c0-2.2-1.8-4-4-4H722 M722,503h54
		c2.8,0,5,2.2,5,5v33c0,2.8-2.2,5-5,5h-54c-2.8,0-5-2.2-5-5v-33C717,505.2,719.2,503,722,503z"/>
	<g>
		<rect x="737" y="511" class="st2" width="20" height="5"/>
		<rect x="767" y="511" class="st2" width="8" height="5"/>
		<rect x="722" y="528" class="st2" width="38" height="5"/>
		<rect x="722" y="536" class="st2" width="42" height="5"/>
	</g>
	<circle class="st3" cx="727.5" cy="513.5" r="5.5"/>
	<g class="st4">
		<path class="st5" d="M763,515.1c0.2,0.2,0.5,0.3,0.8,0.4v-2.1c-0.3-0.1-0.5-0.1-0.7-0.2c-0.2-0.1-0.4-0.2-0.5-0.3
			c-0.1-0.1-0.2-0.3-0.3-0.4c-0.1-0.2-0.1-0.4-0.1-0.6c0-0.2,0-0.5,0.1-0.7c0.1-0.2,0.2-0.4,0.3-0.5s0.3-0.3,0.5-0.3
			c0.2-0.1,0.4-0.1,0.6-0.2v-0.5h0.4v0.5c0.4,0.1,0.8,0.2,1,0.5c0.3,0.3,0.4,0.6,0.5,1.1h-0.7c-0.1-0.5-0.4-0.8-0.9-0.9v2l0.5,0.1
			c0.1,0,0.2,0.1,0.4,0.1c0.1,0.1,0.3,0.2,0.4,0.3c0.1,0.1,0.2,0.3,0.3,0.4c0.1,0.2,0.1,0.4,0.1,0.6c0,0.3,0,0.5-0.1,0.7
			c-0.1,0.2-0.2,0.4-0.4,0.5c-0.2,0.1-0.3,0.3-0.6,0.3c-0.2,0.1-0.4,0.1-0.7,0.2v0.7h-0.4v-0.7c-0.5-0.1-1-0.2-1.3-0.6
			c-0.3-0.3-0.5-0.8-0.5-1.3h0.7C762.7,514.6,762.8,514.9,763,515.1z M763.1,511.1c-0.2,0.2-0.3,0.4-0.3,0.7c0,0.1,0,0.3,0.1,0.4
			c0,0.1,0.1,0.2,0.2,0.2s0.2,0.1,0.3,0.2s0.2,0.1,0.4,0.1v-1.9C763.5,510.8,763.3,510.9,763.1,511.1z M764.6,515.4
			c0.1,0,0.2-0.1,0.3-0.2c0.1-0.1,0.2-0.2,0.2-0.3s0.1-0.3,0.1-0.4c0-0.2,0-0.3-0.1-0.4c-0.1-0.1-0.1-0.2-0.2-0.3
			c-0.1-0.1-0.2-0.1-0.3-0.2s-0.3-0.1-0.4-0.1v2C764.4,515.5,764.5,515.5,764.6,515.4z"/>
	</g>
	<path class="st1" d="M775.5,523h-53v-1h53V523z"/>
</g>
</svg>
