<svg xmlns="http://www.w3.org/2000/svg" width="64" height="36" viewBox="0 0 64 36"><g transform="translate(0 -0.317)"><rect width="64" height="15" transform="translate(0 0.317)" fill="#fff"/><path d="M1,1V14H63V1H1M0,0H64V15H0Z" transform="translate(0 0.317)" fill="#707070"/><rect width="64" height="22" transform="translate(0 14.317)" fill="#fff"/><path d="M1,1V21H63V1H1M0,0H64V22H0Z" transform="translate(0 14.317)" fill="#707070"/><rect width="38" height="5" transform="translate(5 5.317)" fill="#d3d3d3"/><rect width="38" height="5" transform="translate(5 19.317)" fill="#d3d3d3"/><rect width="42" height="5" transform="translate(5 27.317)" fill="#d3d3d3"/><path d="M52.663,10.19h-3.5V6.746h1V9.19h2.5Z" transform="translate(13.149 36.525) rotate(-45)" fill="#707070"/></g></svg>