<svg xmlns="http://www.w3.org/2000/svg" width="58" height="31" viewBox="0 0 58 31"><g transform="translate(-1030 -356)"><rect width="46" height="5" transform="translate(1042 358)" fill="#d3d3d3"/><rect width="38" height="5" transform="translate(1042 369)" fill="#d3d3d3"/><rect width="42" height="5" transform="translate(1042 380)" fill="#d3d3d3"/><circle cx="4.5" cy="4.5" r="4.5" transform="translate(1030 356)" fill="#1b7dd1"/><circle cx="4.5" cy="4.5" r="4.5" transform="translate(1030 367)" fill="#e3e3e3"/><circle cx="4.5" cy="4.5" r="4.5" transform="translate(1030 378)" fill="#e3e3e3"/><circle cx="1.5" cy="1.5" r="1.5" transform="translate(1033 359)" fill="#1b7dd1"/><path d="M1.5,0A1.5,1.5,0,1,0,3,1.5,1.5,1.5,0,0,0,1.5,0m0-2A3.5,3.5,0,1,1-2,1.5,3.5,3.5,0,0,1,1.5-2Z" transform="translate(1033 359)" fill="#fff"/></g></svg>