<svg xmlns="http://www.w3.org/2000/svg" width="23" height="23" viewBox="0 0 23 23"><g transform="translate(-1137 -187)"><path d="M-3949-2h-15a2,2,0,0,1-2-2V-19a2,2,0,0,1,2-2h2a.5.5,0,0,1,.5-.5.5.5,0,0,1,.5.5h12a2,2,0,0,1,2,2V-7h.426a.5.5,0,0,1,.5.5.5.5,0,0,1-.5.5H-3947v2A2,2,0,0,1-3949-2Zm-11.989-9.863v1.211h3.884v3.9h1.211v-3.9h3.883v-1.211h-3.883v-3.9h-1.211v3.9Zm16.97,5.5a.5.5,0,0,1-.379-.173.5.5,0,0,1-.122-.326.5.5,0,0,1,.172-.378A1,1,0,0,0-3944-8v-3.285a.5.5,0,0,1,.5-.5.5.5,0,0,1,.5.5v3.467a.017.017,0,0,1,0,.007v.136l0,.007v.027l0,.008V-7.6l0,.008v.006l0,.006v.014l0,.006v.011l0,0v.012l0,.005v.008l0,.006,0,.006V-7.5l0,.006a.013.013,0,0,1,0,.007l0,.007v.006l0,0h0l0,.005v.005l0,.007,0,.007,0,.006v.01l0,.008v.01l0,.006,0,0h0l0,.006,0,.005,0,.007,0,.006,0,.007,0,.006,0,.007,0,.005,0,.006,0,.007,0,.006,0,.011,0,.008,0,.006,0,.007-.005.011,0,.008,0,.006,0,.007-.008.019,0,.006v.01l-.006.014-.006.013,0,.006a.133.133,0,0,1-.009.019l-.01.022-.008.016a2.027,2.027,0,0,1-.5.659A.493.493,0,0,1-3944.019-6.365Zm.519-7.419a.5.5,0,0,1-.5-.5v-5a.5.5,0,0,1,.5-.5.5.5,0,0,1,.5.5v5A.5.5,0,0,1-3943.5-13.784Zm0-8a.5.5,0,0,1-.5-.5V-23a1,1,0,0,0-1-1h-1.142a.5.5,0,0,1-.5-.5.5.5,0,0,1,.5-.5H-3945a2,2,0,0,1,2,2v.717A.5.5,0,0,1-3943.5-21.784Zm-17.817-1.434a.5.5,0,0,1-.24-.062.5.5,0,0,1-.26-.439.492.492,0,0,1,.061-.239,2.034,2.034,0,0,1,.236-.342l0,0,0,0,0,0,0,0,.006-.006.008-.009.006-.007.008-.009.008-.009,0-.005,0,0,0-.005.006-.006,0,0h0l0-.005,0,0,0,0,.006-.005.006-.006,0,0,0,0,0,0,.005,0,0,0,.005,0,0,0,0,0,.006-.005,0,0,0,0,0,0,0,0,.006-.006.006,0,0,0,0,0,0,0,0,0,0,0,0,0,0,0,.006-.005,0,0,.008-.006,0,0,0,0,.007-.005.006-.005,0,0,0,0,.006-.005h0l0,0,0,0,.006-.006.007,0,0,0,0,0,.007-.006.009-.006.011-.009a1.983,1.983,0,0,1,.725-.345h.005l.007,0,.01,0,.01,0,.012,0,.012,0,.009,0,.013,0h.012l.009,0h.013l.007,0h.051l.008,0h.005l.008,0h3.146a.5.5,0,0,1,.5.5.5.5,0,0,1-.5.5H-3960a1,1,0,0,0-.878.521A.5.5,0,0,1-3961.317-23.218Zm12.175-.781h-5a.5.5,0,0,1-.5-.5.5.5,0,0,1,.5-.5h5a.5.5,0,0,1,.5.5A.5.5,0,0,1-3949.143-24Z" transform="translate(5103 212)" fill="#0673af"/></g></svg>