<?xml version="1.0" encoding="UTF-8"?><svg id="Layer_1" xmlns="http://www.w3.org/2000/svg" viewBox="0 0 60 60"><defs><style>.cls-1{fill:none;stroke:#000;stroke-linecap:round;stroke-linejoin:round;stroke-width:2px;}</style></defs><path class="cls-1" d="M30.47,12.09c0,2.78,0,32.63,0,36.29,0,3.66,2.29,3.66,3.78,3.66s3.71-1.61,3.71-4.02c1.7.99,3.67,1.08,5.65-.38s1.47-5.13,1.47-5.13c0,0,4.29.17,5.2-2.83,1.36-4.45-1.87-7.24-1.87-7.24,0,0,4.59-1.78,2.62-7.52-1.67-4.85-5.45-4.24-5.45-4.24,0,0,2.64-2.5.86-5.92-2.01-3.84-6.68-2.36-6.68-2.36,0,0-.76-4.23-4.65-4.45-3.11-.18-4.64,1.21-4.64,4.13Z"/><path class="cls-1" d="M30.47,12.09c0,2.78,0,32.63,0,36.29s-2.29,3.66-3.78,3.66-3.71-1.61-3.71-4.02c-1.7.99-3.67,1.08-5.65-.38-1.92-1.43-1.47-5.13-1.47-5.13,0,0-4.29.17-5.2-2.83-1.36-4.45,1.87-5.24,1.87-5.24,0,0-4.59-3.78-2.62-9.52,1.67-4.85,5.19-4.01,5.19-4.01,0,0-2.39-2.73-.61-6.15,2.01-3.84,6.68-2.36,6.68-2.36,0,0,.76-4.23,4.65-4.45,3.11-.18,4.64,1.21,4.64,4.13Z"/><path class="cls-1" d="M22.1,48.25c1.84-1.06,2.24-2.97,1.53-4.65"/><path class="cls-1" d="M17.39,35.65c-1.27-1.7-3.27-2.13-4.86-1.22"/><path class="cls-1" d="M45.07,42.5c-.19-2.11-1.55-3.37-3.38-3.43"/><path class="cls-1" d="M38.94,41.14c1.78-1.15,2.09-3.08,1.29-4.72"/><path class="cls-1" d="M45.13,20.7c-1.99.29-3.56,1.07-3.99,2.85"/><path class="cls-1" d="M42.61,26.66c-.76-1.98-2.59-2.67-4.37-2.22"/><path class="cls-1" d="M29.61,29.89c-1.61-.38-2.98-2.23-4.66-1.51"/><path class="cls-1" d="M23.32,31.41c1.13-1.79.6-3.67-.82-4.83"/><path class="cls-1" d="M15.11,20.9c2.31,1.48,4.45,1.36,5.37-.23"/></svg>