<?xml version="1.0" encoding="UTF-8"?><svg id="Layer_1" xmlns="http://www.w3.org/2000/svg" viewBox="0 0 60 60"><defs><style>.cls-1{stroke:#e33e27;}.cls-1,.cls-2,.cls-3,.cls-4{fill:none;stroke-miterlimit:10;stroke-width:2px;}.cls-2{stroke-dasharray:5.05 5.05;}.cls-2,.cls-3,.cls-4{stroke:#000;}.cls-3{stroke-dasharray:4.3 4.3;}</style></defs><polyline class="cls-4" points="55.02 41.11 55.02 43.61 52.52 43.61"/><line class="cls-2" x1="47.47" y1="43.61" x2="9.56" y2="43.61"/><polyline class="cls-4" points="7.04 43.61 4.54 43.61 4.54 41.11"/><line class="cls-3" x1="4.54" y1="36.81" x2="4.54" y2="21.78"/><polyline class="cls-4" points="4.54 19.63 4.54 17.13 7.04 17.13"/><line class="cls-2" x1="12.09" y1="17.13" x2="50" y2="17.13"/><polyline class="cls-4" points="52.52 17.13 55.02 17.13 55.02 19.63"/><line class="cls-3" x1="55.02" y1="23.93" x2="55.02" y2="38.96"/><path d="M18.17,34.66c0-.36,0-.83.06-1.36l-1.42.14c-.81.08-1.6.16-2.17.14-.55.95-.99,1.96-1.46,2.79-.24.43-.59.34-.73.06-.12-.24-.24-.42-.24-.75s.08-.79.32-1.38c.12-.3.26-.65.49-1.07-.36-.26-.55-.55-.61-.67-.16-.38-.08-.51.45-.42.28.04.45.06.73.08,1.52-2.65,4.31-6.56,6.44-8.36.45-.36.75-.34,1.05.06.2.26.32.49.47.83.1.24.16.47.16.71s-.04.53-.16.83c-.47,1.46-1.03,3.56-1.42,5.69.55.24.75.63.89,1.05.1.32-.04.41-.41.34l-.71-.12c-.12,1.01-.22,2.04-.26,3.04,0,.37-.26.45-.63.28-.45-.22-.83-.75-.85-1.92ZM19.59,26.66c-1.3,1.56-2.75,3.5-4.03,5.49.41-.04.81-.08,1.19-.14.69-.08,1.13-.16,1.68-.18.24-1.68.65-3.64,1.15-5.16Z"/><path d="M21.43,33.44c.77-2.13,2.29-5.06,3.71-7.23-.71-.1-1.09-.55-1.26-.87-.12-.28-.02-.47.38-.49,1.24-.08,3.02-1.05,4.58-1.19,1.42-.12,2.65.63,2.65,2.96,0,.71-.36,1.54-.87,2.19-.51.69-1.62,1.66-2.94,2.31.61.37,1.09,1.01,1.09,1.8,0,.57-.22,1.23-.79,1.82-.83.91-2.47,1.64-3.6,1.9-.28.06-.61.08-.85.08-.37,0-.65-.06-.95-.2-.85-.4-1.46-1.21-1.46-1.86,0-.24.12-.75.3-1.21ZM27.36,32.43c0-.36-.36-.69-1.28-.77-.77.16-1.54.2-1.96.08-.51.99-.99,2.03-1.28,2.92-.18.57-.02.77.4.71,1.17-.14,2.86-.95,3.69-1.98.26-.32.42-.67.42-.95ZM24.85,30.33c3.32-.89,5.43-3.06,5.41-4.41,0-.43-.34-.69-.69-.69-.55,0-1.38.3-2.69.75.02.45-.12,1.03-.61,1.94-.22.43-.51.91-1.42,2.41Z"/><path d="M38.73,32.19c.1.22.14.47.14.67,0,1.17-1.09,2.35-1.82,2.9-.83.59-1.74.83-2.61.83-.67,0-1.28-.14-1.78-.43-.95-.51-1.78-1.78-1.82-3.44-.08-4.09,3.54-7.75,5.83-8.79.53-.2,1.09-.34,1.6-.34s.97.14,1.32.43c.69.61,1.21,1.4,1.21,2.19,0,.36-.08.77-.28,1.17-.34.69-.63,1.38-.77,1.82-.1.34-.38.55-.79.3-.41-.26-.69-.71-.69-1.3,0-.24.04-.49.12-.75.08-.3.22-.63.34-.93.28-.71.53-1.36.28-1.62-.49-.53-3.36,1.24-5.04,3.95-.89,1.44-1.28,3.1-1.28,4.31,0,1.74.77,2.51,1.5,2.51,1.11,0,2.55-1.3,3.73-3.54.14-.28.61-.41.81.06Z"/><line class="cls-1" x1="47.33" y1="38.12" x2="47.33" y2="22.29"/></svg>