<?xml version="1.0" encoding="UTF-8"?><svg id="Layer_1" xmlns="http://www.w3.org/2000/svg" viewBox="0 0 60 60"><defs><style>.cls-1{fill:#e33e27;}.cls-2{fill:none;stroke:#000;stroke-miterlimit:10;stroke-width:2px;}</style></defs><rect class="cls-2" x="4.83" y="14.97" width="50.34" height="30.07" rx="5.27" ry="5.27"/><path d="M25.12,25.43c.43,0,.87.06,1.32.17.45.11.83.31,1.14.59l-1.36,1.4c-.17-.17-.37-.29-.61-.37-.24-.08-.48-.12-.74-.14l-.26,1.91,1.1.34c.5.16.89.42,1.16.79.27.36.36.83.28,1.39-.06.42-.19.8-.39,1.12-.2.32-.44.59-.74.82-.3.22-.63.4-1,.53-.37.13-.75.21-1.15.25l-.12.84h-.79l.12-.84c-.53,0-1.04-.07-1.55-.22-.5-.14-.93-.4-1.28-.76l1.48-1.43c.18.26.4.44.68.55.28.11.58.17.9.2l.29-2.03-.84-.26c-.58-.19-1-.46-1.27-.81-.27-.35-.36-.83-.28-1.43.06-.38.18-.72.38-1.02s.44-.56.72-.78c.28-.22.6-.39.95-.53.35-.14.7-.22,1.06-.26l.12-.84h.79l-.12.84ZM24.09,27.12c-.23.05-.44.13-.64.25-.19.12-.31.31-.35.56-.02.18,0,.33.05.43.06.1.13.19.22.25.09.06.18.1.27.13s.16.04.21.06l.24-1.68ZM24.11,32.53c.13-.02.26-.06.38-.1.13-.04.25-.1.35-.17s.2-.16.27-.26c.07-.1.12-.22.14-.35.02-.13,0-.24-.02-.32-.03-.09-.07-.16-.14-.22-.06-.06-.14-.11-.23-.16-.09-.04-.19-.09-.28-.13l-.22-.08-.26,1.8Z"/><path d="M31.44,27.59l-1.91,1.5-.85-1.18,3.1-2.34h1.68l-1.19,8.5h-1.73l.9-6.48Z"/><path d="M35.17,29.82c.07-.5.19-1.02.36-1.54.17-.52.4-.99.7-1.42.3-.42.67-.77,1.11-1.04.44-.27.98-.4,1.61-.4s1.13.13,1.5.4.64.61.82,1.04c.18.42.27.9.29,1.42.02.52,0,1.03-.08,1.54s-.19,1.02-.35,1.54c-.16.52-.39.99-.69,1.42s-.67.77-1.11,1.04c-.44.27-.98.4-1.61.4s-1.13-.13-1.5-.4c-.37-.27-.64-.61-.82-1.04s-.28-.9-.3-1.42c-.02-.52,0-1.03.08-1.54ZM36.97,29.82c-.03.22-.06.49-.08.8-.02.31-.01.61.04.9s.15.53.3.73c.15.2.39.3.72.3s.59-.1.8-.3c.21-.2.38-.44.51-.73.13-.29.22-.59.29-.9.06-.31.11-.58.14-.8.03-.22.06-.49.08-.8.02-.31.01-.61-.04-.9s-.15-.53-.31-.73c-.16-.2-.39-.3-.71-.3s-.6.1-.8.3c-.21.2-.38.44-.5.73s-.22.59-.29.9c-.06.31-.11.58-.14.8Z"/><path d="M42.27,29.82c.07-.5.19-1.02.36-1.54.17-.52.4-.99.7-1.42.3-.42.67-.77,1.11-1.04.44-.27.98-.4,1.61-.4s1.13.13,1.5.4.64.61.82,1.04c.18.42.27.9.29,1.42.02.52,0,1.03-.08,1.54s-.19,1.02-.35,1.54c-.16.52-.39.99-.69,1.42s-.67.77-1.11,1.04c-.44.27-.98.4-1.61.4s-1.13-.13-1.5-.4c-.37-.27-.64-.61-.82-1.04s-.28-.9-.3-1.42c-.02-.52,0-1.03.08-1.54ZM44.07,29.82c-.03.22-.06.49-.08.8-.02.31-.01.61.04.9s.15.53.3.73c.15.2.39.3.72.3s.59-.1.8-.3c.21-.2.38-.44.51-.73.13-.29.22-.59.29-.9.06-.31.11-.58.14-.8.03-.22.06-.49.08-.8.02-.31.01-.61-.04-.9s-.15-.53-.31-.73c-.16-.2-.39-.3-.71-.3s-.6.1-.8.3c-.21.2-.38.44-.5.73s-.22.59-.29.9c-.06.31-.11.58-.14.8Z"/><path class="cls-1" d="M9.37,28.52h3.59l.51-3.59h2.14l-.51,3.59h3.59l-.31,2.14h-3.59l-.49,3.59h-2.14l.49-3.59h-3.59l.31-2.14Z"/></svg>