<?xml version="1.0" encoding="UTF-8"?><svg id="Layer_1" xmlns="http://www.w3.org/2000/svg" viewBox="0 0 60 60"><defs><style>.cls-1{stroke:#000;}.cls-1,.cls-2,.cls-3{fill:none;stroke-miterlimit:10;stroke-width:2px;}.cls-1,.cls-3{stroke-linecap:round;}.cls-2,.cls-3{stroke:#e33e27;}</style></defs><rect class="cls-2" x="4.25" y="5.59" width="40.09" height="27.93" rx="2.74" ry="2.74"/><line class="cls-1" x1="10.62" y1="12.97" x2="26.5" y2="12.97"/><line class="cls-3" x1="35.4" y1="10.97" x2="39.4" y2="14.98"/><line class="cls-1" x1="10.62" y1="21.19" x2="33.62" y2="21.19"/><line class="cls-1" x1="10.62" y1="27.12" x2="21.14" y2="27.12"/><line class="cls-1" x1="6.51" y1="39.88" x2="43.83" y2="53.82"/><line class="cls-1" x1="49.76" y1="7.58" x2="54.18" y2="32.74"/><path d="M55.06,54.64c-8.9,6.37.34-8.48-4.34-8.02-1.96-.21,2.64-2.06,3.25-.84,1.91,2.07-4.21,10.07,1.09,8.86ZM55.79,41.49c.08,1.81-2.61,1.92-2.61.09-.07-1.76,2.63-1.86,2.61-.09Z"/><line class="cls-3" x1="35.4" y1="14.98" x2="39.4" y2="10.97"/></svg>